Coordinates
version=1
nRows=19
nColumns=24
inDegrees=yes

Units are S.I. units (second, meters, Newtons, ...)
Angles are in degrees.

endheader
time	pelvis_tilt	pelvis_list	pelvis_rotation	pelvis_tx	pelvis_ty	pelvis_tz	hip_flexion_r	hip_adduction_r	hip_rotation_r	knee_angle_r	ankle_angle_r	subtalar_angle_r	mtp_angle_r	hip_flexion_l	hip_adduction_l	hip_rotation_l	knee_angle_l	ankle_angle_l	subtalar_angle_l	mtp_angle_l	lumbar_extension	lumbar_bending	lumbar_rotation
      0.49600000	      0.42484449	      1.91299500	      4.94009556	     -0.78021585	      1.00724317	      0.26952958	     19.58565265	     -0.65006748	     -6.75203541	     -1.00480979	      4.57496158	    -12.63592119	      0.81702969	    -13.42725033	      3.98596211	      7.87948222	     -9.30721216	     12.14451132	    -12.53241416	      0.45927830	    -10.02692532	     -3.52006425	     -2.37499829
      0.50016667	      0.42853995	      1.88676988	      4.97108093	     -0.77403660	      1.00671570	      0.26961351	     19.56900138	     -0.56885992	     -6.56989503	     -1.32270183	      4.52166057	    -12.87965868	      7.06042092	    -13.44342532	      3.93107535	      7.69927182	    -10.03619479	     12.24313018	    -12.20853232	      2.69484276	     -9.94153482	     -3.45037436	     -2.45528130
      0.50433333	      0.53476625	      1.85335059	      4.99246788	     -0.76782160	      1.00637238	      0.26972526	     19.39651834	     -0.45998293	     -6.26737910	     -1.61211590	      4.47518764	    -13.15617214	      7.07011924	    -13.57401220	      3.86025523	      7.54906637	    -10.75675148	     12.29701647	    -11.93918114	      2.75366628	     -9.98512114	     -3.36678240	     -2.61185816
      0.50850000	      0.57223453	      1.81818979	      5.01492730	     -0.76158340	      1.00595406	      0.26984367	     19.30577722	     -0.35475552	     -5.95150901	     -1.96671985	      4.38814107	    -13.43692237	      7.09471537	    -13.56916373	      3.79182239	      7.34770084	    -11.60029710	     12.38497716	    -11.56298673	      2.84980907	     -9.93475247	     -3.28167211	     -2.65457677
      0.51266667	      0.64462048	      1.78015402	      5.03306730	     -0.75532546	      1.00561406	      0.26997595	     19.16475781	     -0.24006306	     -5.60816843	     -2.33678398	      4.24839444	    -13.73253656	      7.13268559	    -13.56879347	      3.71364641	      7.10795004	    -12.50381412	     12.43688273	    -11.15740502	      2.98176157	     -9.92591647	     -3.18988147	     -2.71172697
      0.51683333	      0.71021646	      1.73162460	      5.03872615	     -0.74905102	      1.00527764	      0.27012103	     19.04235405	     -0.11207867	     -5.26120272	     -2.76388126	      4.05803999	    -14.02103277	      7.17873899	    -13.53157379	      3.62713204	      6.86186234	    -13.46800669	     12.48335413	    -10.73668304	      3.13213724	     -9.91432608	     -3.08153505	     -2.75916183
      0.52100000	      0.76869273	      1.68824935	      5.06626282	     -0.74273640	      1.00497249	      0.27027849	     18.88643327	      0.00951726	     -4.90182342	     -3.13992600	      3.78182079	    -14.34856891	      7.24711772	    -13.41654405	      3.52625668	      6.51491763	    -14.55992967	     12.47588434	    -10.17214052	      3.35602690	     -9.86801968	     -2.98870203	     -2.80221121
      0.52516667	      0.84101056	      1.63757809	      5.07965475	     -0.73642478	      1.00470047	      0.27045501	     18.72776561	      0.14302570	     -4.53967912	     -3.56338067	      3.48211207	    -14.66107270	      7.32763203	    -13.28442424	      3.41568718	      6.15366923	    -15.70971232	     12.44443234	     -9.60747778	      3.62413141	     -9.84717762	     -2.88212976	     -2.83948986
      0.52933333	      0.91299180	      1.58271034	      5.09785827	     -0.73010934	      1.00445767	      0.27064418	     18.56416285	      0.27975022	     -4.19180601	     -3.99485741	      3.13255202	    -14.96614023	      7.42450408	    -13.10143504	      3.29031760	      5.76411864	    -16.94563912	     12.36771357	     -8.99837514	      3.96241185	     -9.82377611	     -2.77335525	     -2.86297894
      0.53350000	      0.97654409	      1.52590586	      5.11279201	     -0.72379630	      1.00421917	      0.27084548	     18.41148214	      0.41833804	     -3.85672438	     -4.44457957	      2.75498321	    -15.25703988	      7.52877221	    -12.85642552	      3.15498784	      5.33173412	    -18.27879792	     12.25324275	     -8.35019251	      4.35022089	     -9.78710720	     -2.65944301	     -2.88934367
      0.53766667	      1.07570880	      1.45122936	      5.13341834	     -0.71748642	      1.00406350	      0.27106058	     18.20450706	      0.57919688	     -3.51315080	     -4.86700631	      2.24987361	    -15.70645268	      9.33397704	    -12.61618457	      2.98712650	      4.91195577	    -19.64442468	     11.93933630	     -7.87193797	     11.56773737	     -9.79669352	     -2.51401242	     -2.81776694
      0.54183333	      1.12604290	      1.39506703	      5.13680850	     -0.71119793	      1.00384202	      0.27129687	     18.09618879	      0.70953834	     -3.27327842	     -5.40009178	      1.92106086	    -15.77716061	      9.32769219	    -12.25926406	      2.83172318	      4.40408087	    -21.13823694	     11.70780093	     -7.14564328	     11.65534707	     -9.74047881	     -2.41541469	     -2.91477520
      0.54600000	      1.19700018	      1.31397713	      5.15280603	     -0.70492941	      1.00367333	      0.27154464	     17.94546502	      0.86770800	     -3.01677767	     -5.89260305	      1.48867213	    -16.01494681	      9.32726577	    -11.87297578	      2.63362590	      3.90812670	    -22.71345125	     11.42052290	     -6.43870654	     11.80605588	     -9.71168717	     -2.27470455	     -2.90626528
      0.55016667	      1.26873470	      1.23128882	      5.16279816	     -0.69868362	      1.00353405	      0.27181818	     17.80438432	      1.02636766	     -2.78553325	     -6.41254300	      1.07426079	    -16.22837479	      9.33160352	    -11.44418114	      2.42189589	      3.39622245	    -24.34745231	     11.04831638	     -5.74114336	     12.01623658	     -9.68526504	     -2.13870681	     -2.89554685
      0.55433333	      1.35978603	      1.14073506	      5.16562826	     -0.69251709	      1.00341148	      0.27211758	     17.66967431	      1.19344449	     -2.58261435	     -6.98490267	      0.67078667	    -16.46572019	      9.34048977	    -10.98261845	      2.18720189	      2.87222249	    -26.06899375	     10.65621485	     -5.03448886	     12.36672356	     -9.70560154	     -1.98751636	     -2.87122717
      0.55850000	      1.43050957	      1.03920504	      5.17218568	     -0.68634673	      1.00329299	      0.27241702	     17.55418561	      1.36414101	     -2.42733948	     -7.55641157	      0.29865612	    -16.62424027	      9.34839862	    -10.46390896	      1.92984855	      2.35424217	    -27.83400198	     10.13247662	     -4.37734774	     12.77760203	     -9.68315095	     -1.82852045	     -2.84077952
      0.56266667	      1.48638066	      0.92188294	      5.16433069	     -0.68018222	      1.00318145	      0.27276362	     17.43809089	      1.55756522	     -2.21074763	     -8.09273748	     -0.10018205	    -16.89837798	      9.42797456	     -9.89576489	      1.64642548	      1.83430838	    -29.61866787	      9.38759422	     -3.95180039	     20.15576859	     -9.63021708	     -1.65085726	     -2.78203277
      0.56683333	      1.59008932	      0.81626685	      5.18070509	     -0.67410096	      1.00315046	      0.27304769	     17.31359820	      1.71404419	     -2.21937118	     -8.72340250	     -0.32507777	    -16.79629529	      9.42479307	     -9.33717736	      1.35853528	      1.35576867	    -31.47149141	      8.68928711	     -3.35177252	     20.21307191	     -9.65222639	     -1.48936659	     -2.75132604
      0.57100000	      1.65899304	      0.69689556	      5.17401542	     -0.66809587	      1.00306632	      0.27338668	     17.24791028	      1.89108712	     -2.16512673	     -9.39264546	     -0.55435815	    -16.84667133	      9.41367206	     -8.70368801	      1.05592473	      0.88608649	    -33.37026884	      7.97207263	     -2.82174392	     20.32777592	     -9.65144518	     -1.31000587	     -2.69538254
